<svg xmlns="http://www.w3.org/2000/svg" width="28" height="28" viewBox="0 0 28 28" fill="none">
  <g fill="currentColor">
    <path d="M14 4c-5.5 0-10 1.79-10 4v12c0 2.21 4.5 4 10 4s10-1.79 10-4V8c0-2.21-4.5-4-10-4Zm0 2c4.42 0 8 1.34 8 2s-3.58 2-8 2-8-1.34-8-2 3.58-2 8-2Zm8 14c0 .55-3.58 2-8 2s-8-1.45-8-2v-2.2c1.84 1 4.92 1.2 8 1.2s6.16-.2 8-1.2V20Zm0-4c0 .55-3.58 2-8 2s-8-1.45-8-2v-2.2c1.84 1 4.92 1.2 8 1.2s6.16-.2 8-1.2V16Zm0-4c0 .55-3.58 2-8 2s-8-1.45-8-2v-2c1.84 1 4.92 1.2 8 1.2s6.16-.2 8-1.2v2Z" opacity="0.9"/>
  </g>
</svg>
